HIERARCHY
ROOT hip
{
  OFFSET 0 0 0
  CHANNELS 6 Xposition Yposition Zposition Zrotation Yrotation Xrotation
  JOINT abdomen
  {
    OFFSET 0 20.6881 -0.73152
    CHANNELS 3 Zrotation Xrotation Yrotation
    JOINT chest
    {
      OFFSET 0 11.7043 -0.48768
      CHANNELS 3 Zrotation Xrotation Yrotation
      JOINT neck
      {
        OFFSET 0 22.1894 -2.19456
        CHANNELS 3 Zrotation Xrotation Yrotation
        JOINT head
        {
          OFFSET -0.24384 7.07133 1.2192
          CHANNELS 3 Zrotation Xrotation Yrotation
          JOINT leftEye
          {
            OFFSET 4.14528 8.04674 8.04672
            CHANNELS 3 Zrotation Xrotation Yrotation
            End Site
            {
              OFFSET 1 0 0
            }
          }
          JOINT rightEye
          {
            OFFSET -3.6576 8.04674 8.04672
            CHANNELS 3 Zrotation Xrotation Yrotation
            End Site
            {
              OFFSET 1 0 0
            }
          }
        }
      }
      JOINT rCollar
      {
        OFFSET -2.68224 19.2634 -4.8768
        CHANNELS 3 Zrotation Xrotation Yrotation
        JOINT rShldr
        {
          OFFSET -8.77824 -1.95073 1.46304
          CHANNELS 3 Zrotation Xrotation Yrotation
          JOINT rForeArm
          {
            OFFSET -28.1742 -1.7115 0.48768
            CHANNELS 3 Zrotation Xrotation Yrotation
            JOINT rHand
            {
              OFFSET -22.5879 0.773209 7.07136
              CHANNELS 3 Zrotation Xrotation Yrotation
              JOINT rThumb1
              {
                OFFSET -1.2192 -0.487915 3.41376
                CHANNELS 3 Zrotation Xrotation Yrotation
                JOINT rThumb2
                {
                  OFFSET -3.37035 -0.52449 3.41376
                  CHANNELS 3 Zrotation Xrotation Yrotation
                  End Site
                  {
                    OFFSET -1.78271 -1.18214 1.43049
                  }
                }
              }
              JOINT rIndex1
              {
                OFFSET -7.75947 0.938293 5.60832
                CHANNELS 3 Zrotation Xrotation Yrotation
                JOINT rIndex2
                {
                  OFFSET -2.54057 -0.884171 1.56538
                  CHANNELS 3 Zrotation Xrotation Yrotation
                  End Site
                  {
                    OFFSET -1.62519 -0.234802 1.16502
                  }
                }
              }
              JOINT rMid1
              {
                OFFSET -8.24714 1.18213 3.41376
                CHANNELS 3 Zrotation Xrotation Yrotation
                JOINT rMid2
                {
                  OFFSET -3.10165 -0.590103 1.0647
                  CHANNELS 3 Zrotation Xrotation Yrotation
                  End Site
                  {
                    OFFSET -2.48547 -0.328903 0.83742
                  }
                }
              }
              JOINT rRing1
              {
                OFFSET -8.82822 0.546677 1.51678
                CHANNELS 3 Zrotation Xrotation Yrotation
                JOINT rRing2
                {
                  OFFSET -2.60934 -0.819778 -0.0198488
                  CHANNELS 3 Zrotation Xrotation Yrotation
                  End Site
                  {
                    OFFSET -2.33842 -0.294052 0.168128
                  }
                }
              }
              JOINT rPinky1
              {
                OFFSET -8.27202 -0.0477905 -0.4584
                CHANNELS 3 Zrotation Xrotation Yrotation
                JOINT rPinky2
                {
                  OFFSET -1.82734 -0.647385 -0.700984
                  CHANNELS 3 Zrotation Xrotation Yrotation
                  End Site
                  {
                    OFFSET -1.69225 -0.51767 -0.607171
                  }
                }
              }
            }
          }
        }
      }
      JOINT lCollar
      {
        OFFSET 2.68224 19.2634 -4.8768
        CHANNELS 3 Zrotation Xrotation Yrotation
        JOINT lShldr
        {
          OFFSET 8.77824 -1.95073 1.46304
          CHANNELS 3 Zrotation Xrotation Yrotation
          JOINT lForeArm
          {
            OFFSET 28.1742 -1.7115 0.48768
            CHANNELS 3 Zrotation Xrotation Yrotation
            JOINT lHand
            {
              OFFSET 22.5879 0.773209 7.07136
              CHANNELS 3 Zrotation Xrotation Yrotation
              JOINT lThumb1
              {
                OFFSET 1.2192 -0.487915 3.41376
                CHANNELS 3 Zrotation Xrotation Yrotation
                JOINT lThumb2
                {
                  OFFSET 3.37035 -0.52449 3.41376
                  CHANNELS 3 Zrotation Xrotation Yrotation
                  End Site
                  {
                    OFFSET 1.78271 -1.18214 1.43049
                  }
                }
              }
              JOINT lIndex1
              {
                OFFSET 7.75947 0.938293 5.60832
                CHANNELS 3 Zrotation Xrotation Yrotation
                JOINT lIndex2
                {
                  OFFSET 2.54057 -0.884171 1.56538
                  CHANNELS 3 Zrotation Xrotation Yrotation
                  End Site
                  {
                    OFFSET 1.62519 -0.234802 1.16502
                  }
                }
              }
              JOINT lMid1
              {
                OFFSET 8.24714 1.18213 3.41376
                CHANNELS 3 Zrotation Xrotation Yrotation
                JOINT lMid2
                {
                  OFFSET 3.10165 -0.590103 1.0647
                  CHANNELS 3 Zrotation Xrotation Yrotation
                  End Site
                  {
                    OFFSET 2.48547 -0.328903 0.83742
                  }
                }
              }
              JOINT lRing1
              {
                OFFSET 8.82822 0.546677 1.51678
                CHANNELS 3 Zrotation Xrotation Yrotation
                JOINT lRing2
                {
                  OFFSET 2.60934 -0.819778 -0.0198488
                  CHANNELS 3 Zrotation Xrotation Yrotation
                  End Site
                  {
                    OFFSET 2.33842 -0.294052 0.168128
                  }
                }
              }
              JOINT lPinky1
              {
                OFFSET 8.27202 -0.0477905 -0.4584
                CHANNELS 3 Zrotation Xrotation Yrotation
                JOINT lPinky2
                {
                  OFFSET 1.82734 -0.647385 -0.700984
                  CHANNELS 3 Zrotation Xrotation Yrotation
                  End Site
                  {
                    OFFSET 1.69225 -0.51767 -0.607171
                  }
                }
              }
            }
          }
        }
      }
    }
  }
  JOINT rButtock
  {
    OFFSET -8.77824 4.35084 1.2192
    CHANNELS 3 Zrotation Xrotation Yrotation
    JOINT rThigh
    {
      OFFSET 0 -1.70687 -2.19456
      CHANNELS 3 Zrotation Xrotation Yrotation
      JOINT rShin
      {
        OFFSET 0 -36.8199 0.73152
        CHANNELS 3 Zrotation Xrotation Yrotation
        JOINT rFoot
        {
          OFFSET 0.73152 -45.1104 -5.12064
          CHANNELS 3 Zrotation Xrotation Yrotation
          End Site
          {
            OFFSET -1.1221 -3.69964 12.103
          }
        }
      }
    }
  }
  JOINT lButtock
  {
    OFFSET 8.77824 4.35084 1.2192
    CHANNELS 3 Zrotation Xrotation Yrotation
    JOINT lThigh
    {
      OFFSET 0 -1.70687 -2.19456
      CHANNELS 3 Zrotation Xrotation Yrotation
      JOINT lShin
      {
        OFFSET 0 -36.8199 0.73152
        CHANNELS 3 Zrotation Xrotation Yrotation
        JOINT lFoot
        {
          OFFSET -0.73152 -45.1104 -5.12064
          CHANNELS 3 Zrotation Xrotation Yrotation
          End Site
          {
            OFFSET 1.1221 -3.69964 12.103
          }
        }
      }
    }
  }
}
MOTION
Frames:	4
Frame Time:	0.03333
0.0 0.0 0.0 0.0 0.0 0.0 0.0 0.0 0.0 0.0 0.0 0.0 0.0 0.0 0.0 0.0 0.0 0.0 0.0 0.0 0.0 0.0 0.0 0.0 0.0 0.0 0.0 0.0 0.0 0.0 0.0 0.0 0.0 0.0 0.0 0.0 0.0 0.0 0.0 0.0 0.0 0.0 0.0 0.0 0.0 0.0 0.0 0.0 0.0 0.0 0.0 0.0 0.0 0.0 0.0 0.0 0.0 0.0 0.0 0.0 0.0 0.0 0.0 0.0 0.0 0.0 0.0 0.0 0.0 0.0 0.0 0.0 0.0 0.0 0.0 0.0 0.0 0.0 0.0 0.0 0.0 0.0 0.0 0.0 0.0 0.0 0.0 0.0 0.0 0.0 0.0 0.0 0.0 0.0 0.0 0.0 0.0 0.0 0.0 0.0 0.0 0.0 0.0 0.0 0.0 0.0 0.0 0.0 0.0 0.0 0.0 0.0 0.0 0.0 0.0 0.0 0.0 0.0 0.0 0.0 0.0 0.0 0.0 0.0 0.0 0.0 0.0 0.0 0.0 0.0 0.0 0.0
-0.0053 47.1469 -0.1166 14.679568 58.953219 18.983853 -10.417645 19.446754 -151.091416 8.142926 5.59301 170.693604 5.343387 16.18428 40.452351 -17.294689 -13.33171 0.831638 -0.002054 -0.0 0.003046 0.004809 -0.0 -0.000629 -149.904946 22.421758 154.975342 106.276282 -50.953414 127.82222 -12.142715 -36.891588 93.557167 -4.013728 18.470355 0.838524 -174.08769 -11.753795 89.875473 -6.603352 -51.588778 4.458858 -162.636984 -37.46511 122.650389 21.494061 -17.054225 -10.676223 -22.005298 41.041276 17.006151 -163.120029 -4.744786 143.289334 -145.122797 1.97654 -179.748577 11.797511 52.762212 -2.716304 26.973328 80.122506 10.138798 41.012421 80.706902 -5.542831 -2.185537 -15.733629 3.202 111.462498 2.068834 178.145123 174.337464 -15.041602 73.880757 8.227754 0.330653 2.481493 0.54406 0.536195 -0.085607 30.144207 23.528308 -27.016692 155.19328 -24.299933 -122.143093 46.995595 55.252237 -33.060245 36.034956 51.723366 -29.832297 85.813196 64.149178 -77.837867 0.014563 -1.323277 0.415067 155.588081 -55.670698 -179.250517 80.940328 -51.226886 79.359306 139.43124 -7.272958 137.106033 -0.0 -0.001086 -0.002357 -86.181424 -51.849101 -0.0 93.621158 18.822359 -81.385783 -62.070776 -12.495035 2.443482 -179.995064 75.749331 -0.003377 -152.188929 20.674219 -0.0 107.547175 73.51501 -20.487216 -99.954858 48.977622 -9.594538
-0.06520000000000001 47.2563 -0.168 14.085726 58.915087 18.387127 -13.702797 20.134977 119.679885 -8.086796 5.58267 -98.267857 2.872092 15.270507 26.972241 -11.07631 -17.508115 15.229723 -0.000703 -0.0 0.000274 -0.000934 0.0 -0.003053 4.208898 -43.443076 -8.384368 -112.030739 -34.894772 -143.888355 71.004395 -24.548162 -131.140873 -169.345253 44.418931 142.531558 4.531566 -4.51382 -0.520616 0.021893 -1.527971 -3.152777 -0.327039 0.530204 0.185251 11.39898 0.261064 -0.516179 -36.03679 51.722981 29.832251 2.838132 1.674448 0.301303 -145.099382 -1.522368 -178.650533 11.802167 22.914055 -6.370309 0.099042 0.258339 0.090741 -127.325283 -31.015299 -125.73361 9.652374 34.836083 -11.199435 129.850245 -21.00931 -138.806238 101.932613 47.458976 132.748618 -6.987735 -44.133489 1.356217 -71.831339 -48.263553 -25.791687 12.095874 -41.985222 31.084416 158.401962 -30.156377 -122.603426 166.642433 -28.815968 -118.745481 160.09955 -4.901247 -142.967734 167.436 -17.359941 -143.827 0.023341 -1.726096 0.542109 156.337726 -25.096601 -174.793921 81.323827 -51.182818 79.740851 147.132355 13.89284 143.221787 -0.001672 0.001604 -0.000836 -85.535886 -54.337888 180.0 -99.235389 -12.411644 172.564316 -39.370062 46.751134 -53.514731 -179.994497 75.750823 -0.003765 -151.523915 20.536929 -31.548028 -116.912677 65.28403 -68.093869 -178.653864 -5.30358 152.910603
-0.1403 47.367799999999995 -0.2 13.425151 59.145468 17.871517 -11.20154 23.463722 4.076137 -3.972761 -12.998204 15.844224 10.859096 24.533992 96.906838 -28.852137 12.865977 -51.114954 -0.003605 0.0 -0.00245 0.000766 0.0 0.00299 -129.706935 55.102738 133.554012 77.994385 -41.645891 86.397263 -91.891957 -28.487044 51.289985 24.267031 -48.119094 14.534524 -23.298489 20.199689 7.618091 -123.149482 -22.473066 101.996532 -83.732196 42.329063 69.990108 8.144938 -3.534015 -5.219448 -0.057656 0.167833 0.032531 -163.323926 -4.924137 143.37014 -145.100045 -1.521493 -178.650947 -151.595995 -28.675456 -174.579586 -10.079466 -20.711101 -9.542702 2.891622 -0.008625 -0.066652 44.041358 64.186373 -46.711623 0.255298 13.52459 -64.880558 -173.039543 -79.170202 83.772558 9.457005 4.012014 2.039656 164.887564 -2.560103 -89.605948 79.741503 3.611978 -29.166222 166.822229 -43.974005 -122.060287 153.022155 -3.859041 -118.620822 -14.567154 -44.052997 2.826175 155.608478 16.780576 -139.543699 73.163062 -72.143206 90.197793 78.871578 83.207824 -96.716994 9.258411 -19.386412 8.755337 147.489403 13.449095 144.049397 -179.979425 75.7507 -0.014078 144.079876 -8.116507 -78.971461 -100.721835 -2.259846 0.431098 170.636141 7.387086 -84.415402 -0.005826 -0.000381 -0.002913 38.483254 -45.903536 47.905206 102.934332 78.327274 174.331718 46.472312 -35.516851 113.041982
